# xmcd
#
# Track frame offsets:
#	225
#	16413
#	37803
#	55043
#	71980
#	85743
#	100958
#	116328
#	130273
#
# Disc length: 1976 seconds
#
# Revision: 1
# Processed by: cddbd v1.5.1PL0 Copyright (c) Steve Scherf et al.
# Submitted via: EasyCDDAExtractor 7.5.0.1
#
DISCID=6f07b509
DTITLE=John Cougar Mellencamp - Uh - Huh
DYEAR=1900
DGENRE=Blues
TTITLE0=Crumblin' down
TTITLE1=Pink houses
TTITLE2=Authority song
TTITLE3=Warmer place to sleep
TTITLE4=Jackie O
TTITLE5=Play guitar
TTITLE6=Serious business
TTITLE7=Lovin' mother fo ya
TTITLE8=Golden Gates
EXTD=
EXTT0=
EXTT1=
EXTT2=
EXTT3=
EXTT4=
EXTT5=
EXTT6=
EXTT7=
EXTT8=
PLAYORDER=
